<svg style="display:none">
	<symbol id="Logo" viewBox="0 0 126 16" fill="none" xmlns="http://www.w3.org/2000/svg"><path d="M0.459999 0.999999H10.02V2.98H2.84V6.92H8.22V8.9H2.84V15H0.459999V0.999999Z" fill="#161616"/><path d="M23.6177 2.98H22.8977L18.6977 15H16.2577L21.2177 0.999999H25.2577L30.2377 15H27.7977L23.6177 2.98ZM18.9777 9.62H27.1377V11.58H18.9777V9.62Z" fill="#161616"/><path d="M40.435 11.16C40.515 11.5333 40.6683 11.8733 40.895 12.18C41.135 12.4733 41.4483 12.7067 41.835 12.88C42.235 13.0533 42.7083 13.14 43.255 13.14C44.095 13.14 44.7217 12.9467 45.135 12.56C45.5483 12.16 45.755 11.6933 45.755 11.16C45.755 10.72 45.6217 10.3533 45.355 10.06C45.1017 9.76667 44.7417 9.52 44.275 9.32C43.8083 9.10667 43.275 8.90667 42.675 8.72C42.1283 8.56 41.6017 8.39333 41.095 8.22C40.5883 8.03333 40.1283 7.80667 39.715 7.54C39.315 7.26 38.995 6.90667 38.755 6.48C38.515 6.04 38.4017 5.49333 38.415 4.84C38.415 3.98667 38.615 3.26667 39.015 2.68C39.415 2.08 39.975 1.62667 40.695 1.32C41.415 1.01333 42.2417 0.86 43.175 0.86C43.9617 0.86 44.6683 0.973333 45.295 1.2C45.935 1.41333 46.475 1.73333 46.915 2.16C47.355 2.57333 47.6817 3.08667 47.895 3.7L45.715 4.42C45.635 4.12667 45.475 3.86667 45.235 3.64C44.995 3.4 44.695 3.21333 44.335 3.08C43.9883 2.94667 43.6083 2.87333 43.195 2.86C42.7417 2.84667 42.335 2.91333 41.975 3.06C41.6283 3.20667 41.3483 3.42 41.135 3.7C40.9217 3.96667 40.815 4.28 40.815 4.64C40.815 5.05333 40.935 5.38 41.175 5.62C41.415 5.84667 41.7283 6.04 42.115 6.2C42.515 6.34667 42.955 6.5 43.435 6.66C43.995 6.82 44.5483 7.00667 45.095 7.22C45.655 7.42 46.1617 7.68 46.615 8C47.0817 8.30667 47.455 8.7 47.735 9.18C48.015 9.66 48.155 10.26 48.155 10.98C48.155 11.7533 47.975 12.4533 47.615 13.08C47.2683 13.7067 46.735 14.2067 46.015 14.58C45.295 14.9533 44.4017 15.14 43.335 15.14C42.4683 15.14 41.675 15.0133 40.955 14.76C40.2483 14.4933 39.655 14.12 39.175 13.64C38.7083 13.1467 38.4017 12.5667 38.255 11.9L40.435 11.16Z" fill="#161616"/><path d="M57.4952 0.999999H59.8752V6.92H66.4752V0.999999H68.8352V15H66.4752V8.9H59.8752V15H57.4952V0.999999Z" fill="#161616"/><path d="M78.7725 0.999999H81.1525V15H78.7725V0.999999Z" fill="#161616"/><path d="M97.485 15.14C96.4983 15.14 95.5717 14.9667 94.705 14.62C93.8383 14.2733 93.0783 13.7867 92.425 13.16C91.785 12.52 91.2783 11.7667 90.905 10.9C90.545 10.02 90.365 9.05333 90.365 8C90.365 6.96 90.545 6.00667 90.905 5.14C91.2783 4.26 91.785 3.5 92.425 2.86C93.0783 2.22 93.8383 1.72667 94.705 1.38C95.5717 1.03333 96.4983 0.86 97.485 0.86C98.4717 0.86 99.3917 1.03333 100.245 1.38C101.112 1.72667 101.865 2.22 102.505 2.86C103.158 3.5 103.665 4.26 104.025 5.14C104.398 6.00667 104.585 6.96 104.585 8C104.585 9.05333 104.398 10.02 104.025 10.9C103.665 11.7667 103.158 12.52 102.505 13.16C101.865 13.7867 101.112 14.2733 100.245 14.62C99.3917 14.9667 98.4717 15.14 97.485 15.14ZM97.485 13.12C98.3917 13.12 99.1983 12.9133 99.905 12.5C100.612 12.0733 101.165 11.48 101.565 10.72C101.965 9.94667 102.165 9.04 102.165 8C102.165 6.94667 101.965 6.04 101.565 5.28C101.165 4.52 100.612 3.93333 99.905 3.52C99.1983 3.09333 98.3917 2.88 97.485 2.88C96.5783 2.88 95.7717 3.09333 95.065 3.52C94.3583 3.93333 93.7983 4.52 93.385 5.28C92.985 6.04 92.785 6.94667 92.785 8C92.785 9.04 92.985 9.94667 93.385 10.72C93.7983 11.48 94.3583 12.0733 95.065 12.5C95.7717 12.9133 96.5783 13.12 97.485 13.12Z" fill="#161616"/><path d="M125.089 0.999999V15H122.669L116.149 4.74V15H113.769V0.999999H116.209L122.729 11.22V0.999999H125.089Z" fill="#161616"/></symbol>
	<symbol id="ChevronLeft" xmlns="http://www.w3.org/2000/svg" fill="none" viewBox="0 0 24 24" stroke="currentColor"><path stroke-linecap="round" stroke-linejoin="round" d="M15.75 19.5L8.25 12l7.5-7.5" /></symbol>
	<symbol id="ChevronRight" xmlns="http://www.w3.org/2000/svg" fill="none" viewBox="0 0 24 24" stroke="currentColor"><path stroke-linecap="round" stroke-linejoin="round" d="M8.25 4.5l7.5 7.5-7.5 7.5" /></symbol>
	<symbol id="ChevronUp" xmlns="http://www.w3.org/2000/svg" fill="none" viewBox="0 0 24 24" stroke="currentColor"><path stroke-linecap="round" stroke-linejoin="round" d="M4.5 15.75l7.5-7.5 7.5 7.5" /></symbol>	
	<symbol id="ChevronDown" xmlns="http://www.w3.org/2000/svg" fill="none" viewBox="0 0 24 24" stroke="currentColor"><path stroke-linecap="round" stroke-linejoin="round" d="M19.5 8.25l-7.5 7.5-7.5-7.5" /></symbol>
	<symbol id="QuestionMarkCircle" xmlns="http://www.w3.org/2000/svg" fill="none" viewBox="0 0 24 24" stroke="currentColor"><path stroke-linecap="round" stroke-linejoin="round" d="M9.879 7.519c1.171-1.025 3.071-1.025 4.242 0 1.172 1.025 1.172 2.687 0 3.712-.203.179-.43.326-.67.442-.745.361-1.45.999-1.45 1.827v.75M21 12a9 9 0 11-18 0 9 9 0 0118 0zm-9 5.25h.008v.008H12v-.008z" /></symbol>
	<symbol id="User" width="20" height="20" viewBox="0 0 20 20" fill="none" xmlns="http://www.w3.org/2000/svg"><path fill-rule="evenodd" clip-rule="evenodd" d="M10.0003 3.33366C8.61961 3.33366 7.50033 4.45295 7.50033 5.83366C7.50033 7.21437 8.61961 8.33366 10.0003 8.33366C11.381 8.33366 12.5003 7.21437 12.5003 5.83366C12.5003 4.45295 11.381 3.33366 10.0003 3.33366ZM5.83366 5.83366C5.83366 3.53247 7.69914 1.66699 10.0003 1.66699C12.3015 1.66699 14.167 3.53247 14.167 5.83366C14.167 8.13484 12.3015 10.0003 10.0003 10.0003C7.69914 10.0003 5.83366 8.13484 5.83366 5.83366ZM8.33366 13.3337C7.67062 13.3337 7.03473 13.597 6.56589 14.0659C6.09705 14.5347 5.83366 15.1706 5.83366 15.8337V17.5003C5.83366 17.9606 5.46056 18.3337 5.00033 18.3337C4.54009 18.3337 4.16699 17.9606 4.16699 17.5003V15.8337C4.16699 14.7286 4.60598 13.6688 5.38738 12.8874C6.16878 12.106 7.22859 11.667 8.33366 11.667H11.667C12.7721 11.667 13.8319 12.106 14.6133 12.8874C15.3947 13.6688 15.8337 14.7286 15.8337 15.8337V17.5003C15.8337 17.9606 15.4606 18.3337 15.0003 18.3337C14.5401 18.3337 14.167 17.9606 14.167 17.5003V15.8337C14.167 15.1706 13.9036 14.5347 13.4348 14.0659C12.9659 13.597 12.33 13.3337 11.667 13.3337H8.33366Z" fill="currentColor"/></symbol>
	<symbol id="ShoppingCart" width="20" height="20" viewBox="0 0 20 20" fill="none" xmlns="http://www.w3.org/2000/svg"><path d="M14.9997 5.00033H13.333C13.333 3.15866 11.8413 1.66699 9.99968 1.66699C8.15801 1.66699 6.66634 3.15866 6.66634 5.00033H4.99967C4.08301 5.00033 3.33301 5.75033 3.33301 6.66699V16.667C3.33301 17.5837 4.08301 18.3337 4.99967 18.3337H14.9997C15.9163 18.3337 16.6663 17.5837 16.6663 16.667V6.66699C16.6663 5.75033 15.9163 5.00033 14.9997 5.00033ZM9.99968 3.33366C10.9163 3.33366 11.6663 4.08366 11.6663 5.00033H8.33301C8.33301 4.08366 9.08301 3.33366 9.99968 3.33366ZM14.9997 16.667H4.99967V6.66699H6.66634V8.33366C6.66634 8.79199 7.04134 9.16699 7.49967 9.16699C7.95801 9.16699 8.33301 8.79199 8.33301 8.33366V6.66699H11.6663V8.33366C11.6663 8.79199 12.0413 9.16699 12.4997 9.16699C12.958 9.16699 13.333 8.79199 13.333 8.33366V6.66699H14.9997V16.667Z" fill="currentColor"/></symbol>
	<symbol id="Bars3" xmlns="http://www.w3.org/2000/svg" viewBox="0 0 20 20" stroke="currentColor" fill="none"><path fill-rule="evenodd" clip-rule="evenodd" d="M2.5 5.00033C2.5 4.54009 2.8731 4.16699 3.33333 4.16699H16.6667C17.1269 4.16699 17.5 4.54009 17.5 5.00033C17.5 5.46056 17.1269 5.83366 16.6667 5.83366H3.33333C2.8731 5.83366 2.5 5.46056 2.5 5.00033ZM2.5 10.0003C2.5 9.54009 2.8731 9.16699 3.33333 9.16699H16.6667C17.1269 9.16699 17.5 9.54009 17.5 10.0003C17.5 10.4606 17.1269 10.8337 16.6667 10.8337H3.33333C2.8731 10.8337 2.5 10.4606 2.5 10.0003ZM2.5 15.0003C2.5 14.5401 2.8731 14.167 3.33333 14.167H16.6667C17.1269 14.167 17.5 14.5401 17.5 15.0003C17.5 15.4606 17.1269 15.8337 16.6667 15.8337H3.33333C2.8731 15.8337 2.5 15.4606 2.5 15.0003Z" fill="currentColor"/></symbol>
	<symbol id="Heart" xmlns="http://www.w3.org/2000/svg" fill="none" viewBox="0 0 24 24" stroke="currentColor"><path stroke-linecap="round" stroke-linejoin="round" d="M21 8.25c0-2.485-2.099-4.5-4.688-4.5-1.935 0-3.597 1.126-4.312 2.733-.715-1.607-2.377-2.733-4.313-2.733C5.1 3.75 3 5.765 3 8.25c0 7.22 9 12 9 12s9-4.78 9-12z" /></symbol>
	<symbol id="MagnifyingGlass" width="20" height="20" viewBox="0 0 20 20" fill="none" xmlns="http://www.w3.org/2000/svg"><path fill-rule="evenodd" clip-rule="evenodd" d="M8.33366 3.33366C5.57223 3.33366 3.33366 5.57223 3.33366 8.33366C3.33366 11.0951 5.57223 13.3337 8.33366 13.3337C11.0951 13.3337 13.3337 11.0951 13.3337 8.33366C13.3337 5.57223 11.0951 3.33366 8.33366 3.33366ZM1.66699 8.33366C1.66699 4.65176 4.65176 1.66699 8.33366 1.66699C12.0156 1.66699 15.0003 4.65176 15.0003 8.33366C15.0003 9.87425 14.4778 11.2928 13.6002 12.4217L18.0896 16.9111C18.415 17.2365 18.415 17.7641 18.0896 18.0896C17.7641 18.415 17.2365 18.415 16.9111 18.0896L12.4217 13.6002C11.2928 14.4778 9.87425 15.0003 8.33366 15.0003C4.65176 15.0003 1.66699 12.0156 1.66699 8.33366Z" fill="currentColor"/></symbol>
	<symbol id="XMark" xmlns="http://www.w3.org/2000/svg" fill="none" viewBox="0 0 24 24" stroke="currentColor"><path stroke-linecap="round" stroke-linejoin="round" d="M6 18L18 6M6 6l12 12" /></symbol>
	<symbol id="Plus" xmlns="http://www.w3.org/2000/svg" fill="none" viewBox="0 0 24 24" stroke="currentColor"><path stroke-linecap="round" stroke-linejoin="round" d="M12 4.5v15m7.5-7.5h-15" /></symbol>
	<symbol id="Minus" xmlns="http://www.w3.org/2000/svg" fill="none" viewBox="0 0 24 24" stroke="currentColor"><path stroke-linecap="round" stroke-linejoin="round" d="M19.5 12h-15" /></symbol>
	<symbol id="MapPin" xmlns="http://www.w3.org/2000/svg" fill="none" viewBox="0 0 24 24" stroke="currentColor"><path stroke-linecap="round" stroke-linejoin="round" d="M15 10.5a3 3 0 11-6 0 3 3 0 016 0z" /><path stroke-linecap="round" stroke-linejoin="round" d="M19.5 10.5c0 7.142-7.5 11.25-7.5 11.25S4.5 17.642 4.5 10.5a7.5 7.5 0 1115 0z" /></symbol>	
	<symbol id="Phone" xmlns="http://www.w3.org/2000/svg" fill="none" viewBox="0 0 24 24" stroke="currentColor"><path stroke-linecap="round" stroke-linejoin="round" d="M2.25 6.75c0 8.284 6.716 15 15 15h2.25a2.25 2.25 0 002.25-2.25v-1.372c0-.516-.351-.966-.852-1.091l-4.423-1.106c-.44-.11-.902.055-1.173.417l-.97 1.293c-.282.376-.769.542-1.21.38a12.035 12.035 0 01-7.143-7.143c-.162-.441.004-.928.38-1.21l1.293-.97c.363-.271.527-.734.417-1.173L6.963 3.102a1.125 1.125 0 00-1.091-.852H4.5A2.25 2.25 0 002.25 4.5v2.25z" /></symbol>
	<symbol id="Facebook" xmlns="http://www.w3.org/2000/svg" viewBox="0 0 24 24" stroke="currentColor" fill="none" stroke-linecap="round" stroke-linejoin="round"><path stroke="none" d="M0 0h24v24H0z" fill="none" /><path d="M7 10v4h3v7h4v-7h3l1 -4h-4v-2a1 1 0 0 1 1 -1h3v-4h-3a5 5 0 0 0 -5 5v2h-3" /></symbol>
	<symbol id="Instagram" xmlns="http://www.w3.org/2000/svg" viewBox="0 0 24 24" stroke="currentColor" fill="none" stroke-linecap="round" stroke-linejoin="round"><path stroke="none" d="M0 0h24v24H0z" fill="none" /><rect x="4" y="4" width="16" height="16" rx="4" /><circle cx="12" cy="12" r="3" /><line x1="16.5" y1="7.5" x2="16.5" y2="7.501" /></symbol>
	<symbol id="Tiktok" xmlns="http://www.w3.org/2000/svg" viewBox="0 0 24 24" stroke="currentColor" fill="none" stroke-linecap="round" stroke-linejoin="round"><path stroke="none" d="M0 0h24v24H0z" fill="none" /><path d="M9 12a4 4 0 1 0 4 4v-12a5 5 0 0 0 5 5" /></symbol>
	<symbol id="Truck" xmlns="http://www.w3.org/2000/svg"  viewBox="0 0 36 28" stroke="currentColor" fill="none"><path d="M14 22.333C14 24.174 12.5077 25.6663 10.6667 25.6663C8.82576 25.6663 7.33337 24.174 7.33337 22.333M14 22.333C14 20.4921 12.5077 18.9997 10.6667 18.9997C8.82576 18.9997 7.33337 20.4921 7.33337 22.333M14 22.333H24M7.33337 22.333H4.00004V15.6663M30.6667 22.333C30.6667 24.174 29.1743 25.6663 27.3334 25.6663C25.4924 25.6663 24 24.174 24 22.333M30.6667 22.333C30.6667 20.4921 29.1743 18.9997 27.3334 18.9997C25.4924 18.9997 24 20.4921 24 22.333M30.6667 22.333H34V12.333M2.33337 2.33301H20.6667V22.333M34 12.333H20.6667M34 12.333L29 3.99967H20.6667M4.00004 8.99967H10.6667" stroke-linecap="round" stroke-linejoin="round"/></symbol>
	<symbol id="Discount" xmlns="http://www.w3.org/2000/svg" viewBox="0 0 34 34" stroke="currentColor" fill="none"><path d="M12 21.9998L22 11.9998M13.6667 12.8332C13.6667 13.2934 13.2936 13.6665 12.8333 13.6665C12.3731 13.6665 12 13.2934 12 12.8332C12 12.3729 12.3731 11.9998 12.8333 11.9998C13.2936 11.9998 13.6667 12.3729 13.6667 12.8332ZM22 21.1665C22 21.6267 21.6269 21.9998 21.1667 21.9998C20.7064 21.9998 20.3333 21.6267 20.3333 21.1665C20.3333 20.7063 20.7064 20.3332 21.1667 20.3332C21.6269 20.3332 22 20.7063 22 21.1665ZM5.33334 8.99979C5.33334 8.02733 5.71965 7.0947 6.40728 6.40707C7.09491 5.71943 8.02755 5.33313 9.00001 5.33313H10.6667C11.6348 5.33257 12.5635 4.94913 13.25 4.26646L14.4167 3.09979C14.7574 2.75713 15.1625 2.4852 15.6087 2.29964C16.0549 2.11408 16.5334 2.01855 17.0167 2.01855C17.4999 2.01855 17.9784 2.11408 18.4246 2.29964C18.8708 2.4852 19.2759 2.75713 19.6167 3.09979L20.7833 4.26646C21.4699 4.94913 22.3985 5.33257 23.3667 5.33313H25.0333C26.0058 5.33313 26.9384 5.71943 27.6261 6.40707C28.3137 7.0947 28.7 8.02733 28.7 8.99979V10.6665C28.7006 11.6346 29.084 12.5633 29.7667 13.2498L30.9333 14.4165C31.276 14.7572 31.5479 15.1623 31.7335 15.6085C31.9191 16.0547 32.0146 16.5332 32.0146 17.0165C32.0146 17.4997 31.9191 17.9782 31.7335 18.4244C31.5479 18.8706 31.276 19.2757 30.9333 19.6165L29.7667 20.7831C29.084 21.4696 28.7006 22.3983 28.7 23.3665V25.0331C28.7 26.0056 28.3137 26.9382 27.6261 27.6259C26.9384 28.3135 26.0058 28.6998 25.0333 28.6998H23.3667C22.3985 28.7003 21.4699 29.0838 20.7833 29.7665L19.6167 30.9331C19.2759 31.2758 18.8708 31.5477 18.4246 31.7333C17.9784 31.9188 17.4999 32.0144 17.0167 32.0144C16.5334 32.0144 16.0549 31.9188 15.6087 31.7333C15.1625 31.5477 14.7574 31.2758 14.4167 30.9331L13.25 29.7665C12.5635 29.0838 11.6348 28.7003 10.6667 28.6998H9.00001C8.02755 28.6998 7.09491 28.3135 6.40728 27.6259C5.71965 26.9382 5.33334 26.0056 5.33334 25.0331V23.3665C5.33279 22.3983 4.94934 21.4696 4.26667 20.7831L3.10001 19.6165C2.75734 19.2757 2.48541 18.8706 2.29985 18.4244C2.11429 17.9782 2.01877 17.4997 2.01877 17.0165C2.01877 16.5332 2.11429 16.0547 2.29985 15.6085C2.48541 15.1623 2.75734 14.7572 3.10001 14.4165L4.26667 13.2498C4.94934 12.5633 5.33279 11.6346 5.33334 10.6665V8.99979Z" stroke-linecap="round" stroke-linejoin="round"/></symbol>
	<symbol id="Return" xmlns="http://www.w3.org/2000/svg" viewBox="0 0 34 30" stroke="currentColor" fill="none"><path d="M32 6.66699H2M32 6.66699L27 11.667M32 6.66699L27 1.66699M7 28.3337L2 23.3337M2 23.3337L7 18.3337M2 23.3337H32" stroke-linecap="round" stroke-linejoin="round"/></symbol>			
	<symbol id="CreditCard" xmlns="http://www.w3.org/2000/svg" viewBox="0 0 34 28" stroke="currentColor" fill="none"><path d="M2 10.6663H32M8.66667 18.9997H8.68333M15.3333 18.9997H18.6667M7 2.33301H27C29.7614 2.33301 32 4.57158 32 7.33301V20.6663C32 23.4278 29.7614 25.6663 27 25.6663H7C4.23858 25.6663 2 23.4278 2 20.6663V7.33301C2 4.57158 4.23858 2.33301 7 2.33301Z" stroke-linecap="round" stroke-linejoin="round"/></symbol>		
	<symbol id="Deco" xmlns="http://www.w3.org/2000/svg" viewBox="0 0 58 20" stroke="currentColor" fill="none"><path d="M49.5359 16.9432C47.3666 16.9432 46.9948 14.8019 47.6797 12.7178C48.2221 11.0615 49.5066 9.31991 51.4201 9.31991C53.676 9.31991 53.9039 11.6038 53.247 13.6026C52.6753 15.3162 51.3908 16.9432 49.5359 16.9432ZM48.879 19.9973C52.6473 19.9973 56.0159 17.9133 57.3578 14.1449C58.7569 10.1767 57.1859 6.2085 52.0477 6.2085C47.9369 6.2085 44.7962 8.77758 43.5969 12.1755C42.2551 16.0011 43.7115 19.9973 48.879 19.9973ZM36.3747 19.9973C37.8591 19.9973 39.3729 19.6829 40.4282 19.2271C40.8 18.1998 40.828 17.2004 40.5428 16.201C39.8006 16.4862 38.7732 16.7727 37.7165 16.7727C34.861 16.7727 34.6051 14.6606 35.2048 12.8617C35.8617 10.9496 37.574 9.40786 40.287 9.40786C41.0012 9.40786 41.6861 9.52246 42.1138 9.77963C42.856 8.78025 43.2838 7.78086 43.3704 6.7535C42.7428 6.46834 41.6861 6.21117 40.3163 6.21117C35.863 6.21117 32.3505 8.80956 31.0953 12.406C29.896 15.8039 30.8101 20 36.3774 20L36.3747 19.9973ZM21.0442 11.8037C21.8143 10.0901 23.0136 9.09206 24.5846 9.09206C25.9838 9.09206 26.2116 9.86225 25.9838 10.4619C25.6413 11.2894 24.47 11.8037 21.0442 11.8037ZM22.2714 19.9973C23.7278 19.9973 25.7826 19.7122 27.4962 18.8554C27.7813 17.9133 27.7534 16.9712 27.4389 15.9998C26.3542 16.5421 24.8405 16.8566 23.4707 16.8566C21.4439 16.8566 20.3299 16.1997 20.3592 14.5447C25.8972 14.6873 28.7807 13.6879 29.7228 11.2334C30.6649 8.7496 29.0379 6.2085 25.1829 6.2085C21.0721 6.2085 18.046 9.14935 16.932 12.3181C15.7621 15.6867 16.5043 19.9973 22.2701 19.9973H22.2714ZM5.72293 19.9973C9.52059 19.9973 11.6806 18.2557 14.1924 12.9177C15.5622 9.97684 16.7335 7.09329 18.0753 4.23905L19.6743 4.7534C20.1021 4.89598 20.3313 4.6388 20.1314 4.23905L18.1899 0.270827C18.0473 -0.0143302 17.7329 -0.0436454 17.533 0.0429678L12.708 1.86984C12.3082 2.01242 12.3362 2.38419 12.7359 2.49745L14.1631 2.95451C12.9931 5.6102 11.5367 9.60641 10.3654 12.1182C9.05155 14.9165 8.39595 16.8859 6.16933 16.8859C3.9427 16.8859 3.57093 15.1443 4.51301 12.6605C5.59768 9.77697 7.42455 8.92016 9.5086 9.51979C10.0802 8.72028 10.508 7.52103 10.6785 6.43636C10.0789 6.26447 9.36469 6.2085 8.76639 6.2085C5.3978 6.2085 2.05719 7.95009 0.687373 11.6038C-1.0822 16.3143 0.554122 19.9973 5.7216 19.9973H5.72293Z" fill="currentColor"/></symbol>
	<symbol id="Discord" xmlns="http://www.w3.org/2000/svg" viewBox="0 0 127.14 96.36" stroke="currentColor" fill="none"><g id="图层_2" data-name="图层 2"><g id="Discord_Logos" data-name="Discord Logos"><g id="Discord_Logo_-_Large_-_White" data-name="Discord Logo - Large - White"><path class="cls-1" d="M107.7,8.07A105.15,105.15,0,0,0,81.47,0a72.06,72.06,0,0,0-3.36,6.83A97.68,97.68,0,0,0,49,6.83,72.37,72.37,0,0,0,45.64,0,105.89,105.89,0,0,0,19.39,8.09C2.79,32.65-1.71,56.6.54,80.21h0A105.73,105.73,0,0,0,32.71,96.36,77.7,77.7,0,0,0,39.6,85.25a68.42,68.42,0,0,1-10.85-5.18c.91-.66,1.8-1.34,2.66-2a75.57,75.57,0,0,0,64.32,0c.87.71,1.76,1.39,2.66,2a68.68,68.68,0,0,1-10.87,5.19,77,77,0,0,0,6.89,11.1A105.25,105.25,0,0,0,126.6,80.22h0C129.24,52.84,122.09,29.11,107.7,8.07ZM42.45,65.69C36.18,65.69,31,60,31,53s5-12.74,11.43-12.74S54,46,53.89,53,48.84,65.69,42.45,65.69Zm42.24,0C78.41,65.69,73.25,60,73.25,53s5-12.74,11.44-12.74S96.23,46,96.12,53,91.08,65.69,84.69,65.69Z"/></g></g></g></symbol>
	<symbol id="FilterList" xmlns="http://www.w3.org/2000/svg" viewBox="0 0 16 16" fill="none"><path d="M6.66667 12H9.33333V10.6667H6.66667V12ZM2 4V5.33333H14V4H2ZM4 8.66667H12V7.33333H4V8.66667Z" fill="currentColor"/></symbol>
	<symbol id="ChevronUp" xmlns="http://www.w3.org/2000/svg" viewBox="0 0 16 16" stroke="currentColor" fill="none"><path fill-rule="evenodd" clip-rule="evenodd" d="M7.52851 5.52827C7.78886 5.26792 8.21097 5.26792 8.47132 5.52827L12.4713 9.52827C12.7317 9.78862 12.7317 10.2107 12.4713 10.4711C12.211 10.7314 11.7889 10.7314 11.5285 10.4711L7.99992 6.94248L4.47132 10.4711C4.21097 10.7314 3.78886 10.7314 3.52851 10.4711C3.26816 10.2107 3.26816 9.78862 3.52851 9.52827L7.52851 5.52827Z" fill="black"/></symbol>
	<symbol id="Trash" width="20" height="20" viewBox="0 0 20 20" fill="none" xmlns="http://www.w3.org/2000/svg"><path fill-rule="evenodd" clip-rule="evenodd" d="M7.15482 2.15483C7.46738 1.84227 7.89131 1.66667 8.33333 1.66667H11.6667C12.1087 1.66667 12.5326 1.84227 12.8452 2.15483C13.1577 2.46739 13.3333 2.89131 13.3333 3.33334V5H15.8236C15.8295 4.99994 15.8353 4.99994 15.8412 5H16.6667C17.1269 5 17.5 5.3731 17.5 5.83334C17.5 6.29357 17.1269 6.66667 16.6667 6.66667H16.6001L15.833 15.8715C15.8231 16.5207 15.5609 17.1413 15.1011 17.6011C14.6323 18.0699 13.9964 18.3333 13.3333 18.3333H6.66667C6.00362 18.3333 5.36774 18.0699 4.8989 17.6011C4.43906 17.1413 4.17685 16.5207 4.16696 15.8715L3.39989 6.66667H3.33333C2.8731 6.66667 2.5 6.29357 2.5 5.83334C2.5 5.3731 2.8731 5 3.33333 5H4.15878C4.16467 4.99994 4.17055 4.99994 4.17641 5H6.66667V3.33334C6.66667 2.89131 6.84226 2.46739 7.15482 2.15483ZM5.07233 6.66667L5.83045 15.7641C5.83237 15.7871 5.83333 15.8102 5.83333 15.8333C5.83333 16.0543 5.92113 16.2663 6.07741 16.4226C6.23369 16.5789 6.44565 16.6667 6.66667 16.6667H13.3333C13.5543 16.6667 13.7663 16.5789 13.9226 16.4226C14.0789 16.2663 14.1667 16.0543 14.1667 15.8333C14.1667 15.8102 14.1676 15.7871 14.1695 15.7641L14.9277 6.66667H5.07233ZM11.6667 5H8.33333V3.33334H11.6667V5ZM8.33333 8.33334C8.79357 8.33334 9.16667 8.70643 9.16667 9.16667V14.1667C9.16667 14.6269 8.79357 15 8.33333 15C7.8731 15 7.5 14.6269 7.5 14.1667V9.16667C7.5 8.70643 7.8731 8.33334 8.33333 8.33334ZM11.6667 8.33334C12.1269 8.33334 12.5 8.70643 12.5 9.16667V14.1667C12.5 14.6269 12.1269 15 11.6667 15C11.2064 15 10.8333 14.6269 10.8333 14.1667V9.16667C10.8333 8.70643 11.2064 8.33334 11.6667 8.33334Z" fill="currentColor"/></symbol>
	<symbol id="MarketingCardPlus" xmlns="http://www.w3.org/2000/svg" viewBox="0 -25 100 100"><path fill="#2c2c2c" d="M57.9 17.1V-25H42.1v42.1H0v15.8h42.1V75h15.8V32.9H100V17.1z"/></symbol>
	<symbol id="WhatsApp"  xmlns="http://www.w3.org/2000/svg" viewBox="0 0 18 18" fill="none" ><path fill-rule="evenodd" clip-rule="evenodd" d="M13.333 3.94275C12.0977 2.88909 10.5203 2.32246 8.89688 2.34921C7.27345 2.37596 5.71558 2.99425 4.51564 4.08804C3.3157 5.18184 2.55617 6.67594 2.3796 8.28996C2.20302 9.90398 2.62153 11.527 3.5566 12.8543C3.72398 13.0919 3.75547 13.3996 3.63972 13.6661L2.88341 15.408L5.56246 14.9305C5.73665 14.8995 5.9162 14.9247 6.07512 15.0025C7.53336 15.7165 9.20204 15.8737 10.768 15.4448C12.334 15.0158 13.6896 14.0301 14.5804 12.6727C15.4712 11.3152 15.836 9.67933 15.6064 8.07201C15.3767 6.46468 14.5684 4.99641 13.333 3.94275ZM8.86942 0.682773C10.8987 0.649334 12.8704 1.35761 14.4146 2.67469C15.9588 3.99177 16.9692 5.8271 17.2563 7.83626C17.5433 9.84542 17.0873 11.8903 15.9738 13.5871C14.8603 15.2839 13.1658 16.516 11.2083 17.0522C9.34061 17.5638 7.35601 17.4083 5.59455 16.6177L1.64654 17.3213C1.34428 17.3752 1.03687 17.2585 0.846507 17.0176C0.656144 16.7767 0.613663 16.4506 0.735949 16.169L1.93091 13.417C0.947723 11.8367 0.519412 9.96793 0.722814 8.1087C0.943534 6.09118 1.89294 4.22355 3.39287 2.85631C4.8928 1.48907 6.84013 0.716212 8.86942 0.682773ZM6.03312 5.61685C6.26754 5.38243 6.58548 5.25073 6.917 5.25073C7.24852 5.25073 7.56646 5.38243 7.80088 5.61685C8.03531 5.85127 8.167 6.16921 8.167 6.50073V7.33407C8.167 7.66558 8.03531 7.98353 7.80088 8.21795C7.71659 8.30224 7.62149 8.37326 7.51885 8.42964C7.68255 8.89999 7.95113 9.33224 8.30998 9.69109C8.66883 10.0499 9.10107 10.3185 9.57143 10.4822C9.62781 10.3796 9.69882 10.2845 9.78312 10.2002C10.0175 9.96576 10.3355 9.83407 10.667 9.83407H11.5003C11.8319 9.83407 12.1498 9.96576 12.3842 10.2002C12.6186 10.4346 12.7503 10.7525 12.7503 11.0841C12.7503 11.4156 12.6186 11.7335 12.3842 11.9679C12.1498 12.2024 11.8319 12.3341 11.5003 12.3341H10.667C9.34092 12.3341 8.06915 11.8073 7.13147 10.8696C6.19378 9.93192 5.667 8.66015 5.667 7.33407V6.50073C5.667 6.16921 5.79869 5.85127 6.03312 5.61685Z" fill="currentColor"/></symbol>
	<symbol id="Mastercard" width="60px" height="60px"  xmlns="http://www.w3.org/2000/svg"  fill="none" ><path fill-rule="evenodd" clip-rule="evenodd" d="M35.3945 34.7619C33.0114 36.8184 29.92 38.0599 26.5421 38.0599C19.0047 38.0599 12.8945 31.8788 12.8945 24.254C12.8945 16.6291 19.0047 10.448 26.5421 10.448C29.92 10.448 33.0114 11.6895 35.3945 13.7461C37.7777 11.6895 40.869 10.448 44.247 10.448C51.7843 10.448 57.8945 16.6291 57.8945 24.254C57.8945 31.8788 51.7843 38.0599 44.247 38.0599C40.869 38.0599 37.7777 36.8184 35.3945 34.7619Z" fill="#ED0006"/><path fill-rule="evenodd" clip-rule="evenodd" d="M35.3945 34.7619C38.3289 32.2296 40.1896 28.4616 40.1896 24.254C40.1896 20.0463 38.3289 16.2783 35.3945 13.7461C37.7777 11.6895 40.869 10.448 44.247 10.448C51.7843 10.448 57.8945 16.6291 57.8945 24.254C57.8945 31.8788 51.7843 38.0599 44.247 38.0599C40.869 38.0599 37.7777 36.8184 35.3945 34.7619Z" fill="#F9A000"/><path fill-rule="evenodd" clip-rule="evenodd" d="M35.3946 13.7461C38.329 16.2784 40.1897 20.0463 40.1897 24.254C40.1897 28.4616 38.329 32.2295 35.3946 34.7618C32.4603 32.2295 30.5996 28.4616 30.5996 24.254C30.5996 20.0463 32.4603 16.2784 35.3946 13.7461Z" fill="#FF5E00"/></symbol>
	<symbol id="Visa" width="70px" height="70px" xmlns="http://www.w3.org/2000/svg" fill="none"><path fill-rule="evenodd" clip-rule="evenodd" d="M21.2505 32.5165H17.0099L13.8299 20.3847C13.679 19.8267 13.3585 19.3333 12.8871 19.1008C11.7106 18.5165 10.4142 18.0514 9 17.8169V17.3498H15.8313C16.7742 17.3498 17.4813 18.0514 17.5991 18.8663L19.2491 27.6173L23.4877 17.3498H27.6104L21.2505 32.5165ZM29.9675 32.5165H25.9626L29.2604 17.3498H33.2653L29.9675 32.5165ZM38.4467 21.5514C38.5646 20.7346 39.2717 20.2675 40.0967 20.2675C41.3931 20.1502 42.8052 20.3848 43.9838 20.9671L44.6909 17.7016C43.5123 17.2345 42.216 17 41.0395 17C37.1524 17 34.3239 19.1008 34.3239 22.0165C34.3239 24.2346 36.3274 25.3992 37.7417 26.1008C39.2717 26.8004 39.861 27.2675 39.7431 27.9671C39.7431 29.0165 38.5646 29.4836 37.3881 29.4836C35.9739 29.4836 34.5596 29.1338 33.2653 28.5494L32.5582 31.8169C33.9724 32.3992 35.5025 32.6338 36.9167 32.6338C41.2752 32.749 43.9838 30.6502 43.9838 27.5C43.9838 23.5329 38.4467 23.3004 38.4467 21.5514ZM58 32.5165L54.82 17.3498H51.4044C50.6972 17.3498 49.9901 17.8169 49.7544 18.5165L43.8659 32.5165H47.9887L48.8116 30.3004H53.8772L54.3486 32.5165H58ZM51.9936 21.4342L53.1701 27.1502H49.8723L51.9936 21.4342Z" fill="#172B85"/></symbol>		
	<symbol id="Elo" viewBox="0 -40 650 780"   xmlns="http://www.w3.org/2000/svg"  width="60px" height="60px" fill="none"><path d="m167.25 181.4c6.8-2.3 14.1-3.5 21.7-3.5 33.2 0 60.9 23.601 67.2 54.9l47-9.6c-10.8-53.2-57.8-93.301-114.2-93.301-12.9 0-25.3 2.101-36.9 6l15.2 45.501z" fill="#FFF100"/><path d="m111.75 333.8l31.8-36c-14.2-12.6-23.1-30.9-23.1-51.4 0-20.399 8.9-38.8 23.1-51.3l-31.8-35.899c-24.1 21.399-39.3 52.5-39.3 87.3 0 34.699 15.2 65.898 39.3 87.299z" fill="#00A3DF"/><path d="m256.15 260.2c-6.4 31.3-34 54.8-67.2 54.8-7.6 0-14.9-1.2-21.8-3.5l-15.2 45.5c11.6 3.899 24.1 6 37 6 56.4 0 103.4-40 114.2-93.2l-47-9.6z" fill="#EE4023"/><path d="m459.75 292.4c-7.8 7.601-18.3 12.2-29.9 12-8-0.1-15.399-2.5-21.6-6.5l-15.601 24.801c10.7 6.699 23.2 10.699 36.801 10.899 19.699 0.3 37.699-7.5 50.8-20.2l-20.5-21zm-28.2-101.1c-39.2-0.6-71.6 30.8-72.2 70-0.2 14.7 4 28.5 11.5 39.9l128.8-55.101c-7.2-30.899-34.8-54.2-68.1-54.799m-42.7 75.599c-0.2-1.6-0.3-3.3-0.3-5 0.4-23.1 19.4-41.6 42.5-41.199 12.6 0.199 23.8 5.899 31.3 14.899l-73.5 31.3zm151.3-107.6v137.3l23.801 9.9-11.301 27.1-23.6-9.8c-5.3-2.3-8.9-5.8-11.6-9.8-2.601-4-4.601-9.601-4.601-17v-137.7h27.301zm85.901 63.5c4.2-1.4 8.6-2.1 13.3-2.1 20.3 0 37.101 14.399 41 33.5l28.7-5.9c-6.6-32.5-35.3-56.9-69.7-56.9-7.899 0-15.5 1.301-22.5 3.601l9.2 27.799zm-33.901 92.9l19.4-21.9c-8.7-7.7-14.1-18.9-14.1-31.4s5.5-23.699 14.1-31.3l-19.4-21.899c-14.699 13-24 32.1-24 53.3s9.301 40.199 24 53.199zm88.201-44.801c-3.899 19.101-20.8 33.5-41 33.5-4.6 0-9.1-0.8-13.3-2.199l-9.3 27.8c7.1 2.399 14.7 3.7 22.6 3.7 34.4 0 63.101-24.4 69.7-56.9l-28.7-5.901z" fill="#000"/></symbol>
	<symbol id="HiperCard"  width="70px" height="70px"  viewBox="-20 -90 580 620" xmlns="http://www.w3.org/2000/svg" fill="none"><path fill="#B82126" d="M140.555 0H87.49C64.044 1.109 44.878 10.552 39.344 30.026c-2.885 10.157-4.473 21.31-6.73 31.839C21.144 115.398 10.972 170.404 0 222.867h413.12c31.939 0 53.867-6.749 59.794-32.096c2.753-11.776 5.39-25.114 8.024-38.051C491.206 102.278 501.483 51.838 512 0H140.555"/><path fill="#FFF" d="M353.7 133.153c-5.73 5.609-21.813 7.202-20.167-6.205c1.366-11.136 13.49-13.502 26.63-11.894c-.977 6.091-2.097 13.825-6.463 18.1Zm-18.1-43.437c-.546 3.072-1.386 5.852-2.067 8.79c6.56-1.644 26.99-6.687 28.958 2.069c.654 2.91-.474 6-1.293 8.274c-18.474-1.75-33.531 1.32-37.49 14.479c-2.653 8.814.297 17.488 5.947 19.91c10.881 4.66 24.117-.68 28.699-8.016c-.476 2.54-.927 5.105-.776 8.274h9.566c.102-9.162 1.435-16.578 2.844-24.822c1.202-7.02 3.462-13.971 3.102-20.167c-.82-14.19-24.33-9.171-37.49-8.79Zm95.924 47.832c-7.485.16-11.206-4.471-11.377-12.151c-.298-13.45 5.602-28.394 17.582-29.734c5.578-.624 9.616.673 13.703 2.069c-3.751 15.108-2.397 39.44-19.908 39.816Zm24.82-71.101c-.952 8.354-2.226 16.389-3.877 24.044c-27.271-8.631-43.996 11.433-43.696 36.198c.059 4.79.883 9.54 3.879 12.927c5.162 5.84 19.944 7.236 27.406 2.328c1.446-.95 2.921-2.678 3.88-3.878c.718-.903 1.86-3.266 2.066-2.587c-.391 2.625-.978 5.056-1.033 8.017h10.084c1.942-27.877 7.952-51.688 12.41-77.05h-11.118ZM171.68 133.412c-5.949 6.3-20.572 6.203-21.718-4.396c-.5-4.612 1.219-9.448 2.068-14.22c.86-4.83 1.478-9.464 2.326-13.704c5.859-7.154 23.075-8.017 24.822 3.879c1.516 10.328-2.572 23.224-7.498 28.441Zm8.791-43.696c-9.41-3.534-20.879.685-25.85 4.699c.017.176-.118.2-.265.214c.085-.072.177-.143.265-.214a.233.233 0 0 0-.006-.044c.084-1.727.692-2.929.776-4.655h-9.566c-3.987 26.523-8.714 52.304-13.704 77.824h11.118c1.609-9.94 2.672-20.424 4.913-29.733c2.539 9.79 19.117 7.92 26.113 4.137c14.435-7.805 25.569-44.954 6.206-52.228Zm52.744 18.616h-26.113c.826-6.003 6.227-12.602 14.737-12.927c8.009-.307 13.743 2.94 11.376 12.927Zm-10.6-19.65c-8.034.619-14.824 2.93-19.65 8.015c-5.92 6.236-10.713 20.023-9.309 32.578c2.004 17.912 24.306 17.27 42.145 12.927c.303-3.143 1.064-5.83 1.551-8.79c-7.349 2.75-20.107 6.588-27.665 1.81c-5.706-3.608-5.74-12.745-3.878-20.685c11.989-.381 24.45-.308 36.455 0c.762-5.628 2.942-11.764 1.034-17.322c-2.515-7.339-11.52-9.238-20.683-8.533Zm-97.733 1.034c-.301.044-.281.41-.26.775c-2.449 18.321-5.764 35.777-9.307 53.005h11.118c2.671-18.445 5.731-36.499 9.566-53.78h-11.117Zm290.096.258c-9.826-4.912-18.006 3.331-21.2 8.274c.909-2.536.96-5.931 1.808-8.532h-9.825c-2.648 18.467-5.843 36.388-9.566 53.78h11.376c.072-7.128 1.472-12.4 2.585-19.392c2.378-14.926 5.868-31.294 23.27-26.372c.578-2.525.818-5.388 1.552-7.758Zm-124.882 40.852c-1.024-2.647-1.29-7.02-1.034-10.342c.575-7.472 3.297-16.567 7.498-20.684c5.798-5.683 17.244-4.743 26.372-1.552c.284-3.077.902-5.821 1.294-8.79c-14.973-2.445-29.181-.924-36.715 6.98c-7.374 7.739-12.209 25.524-8.791 36.715c4 13.095 21.934 13.807 36.457 8.791c.642-2.632.982-5.566 1.551-8.274c-7.935 4.123-23.105 6.266-26.632-2.844Zm-6.204-41.11c-9.859-3.981-17.608 2.747-21.2 9.05c.813-2.804 1.15-6.088 1.808-9.05h-9.825c-2.402 18.628-5.942 36.117-9.308 53.78h11.119c1.558-10.485 2.23-24.618 5.687-34.647c2.763-8.014 9.993-14.842 20.426-11.117c.146-2.957.993-5.214 1.293-8.016ZM104.714 67.998c-1.588 10.305-3.377 20.41-5.171 30.509c-11.518.121-23.278.569-34.387-.26c2.098-9.879 3.603-20.354 5.687-30.25h-12.41c-4.443 25.207-8.483 50.813-13.443 75.5h12.668c1.988-12.665 3.846-25.458 6.463-37.49c10.803-.267 23.75-.73 34.13.258c-2.14 12.511-4.727 24.575-6.722 37.232h12.669c4.07-25.577 8.36-50.935 13.445-75.498h-12.928Zm31.543 11.376c2.217-1.526 5.071-8.481 1.81-11.376c-1.033-.917-2.761-1.183-5.17-.775c-2.237.377-3.523 1.136-4.396 2.326c-1.406 1.913-2.693 7.682-.518 9.825c2.118 2.087 6.864.97 8.274 0Z"/></symbol>
	<symbol id="Pix" viewBox="-150 15 1012 812" width="75px" height="75px" xmlns="http://www.w3.org/2000/svg" fill="none"> <defs/> <g fill="#00BDAE" fill-rule="evenodd"> <path d="M393.072 391.897c-20.082 0-38.969-7.81-53.176-22.02l-77.069-77.067c-5.375-5.375-14.773-5.395-20.17 0l-76.784 76.786c-14.209 14.207-33.095 22.019-53.179 22.019h-9.247l97.521 97.52c30.375 30.375 79.614 30.375 109.988 0l97.239-97.238h-15.123zm-105.049 74.327c-8.55 8.53-19.93 13.25-32.05 13.25h-.02c-12.12 0-23.522-4.721-32.05-13.25l-56.855-56.855c7.875-4.613 15.165-10.248 21.758-16.84l63.948-63.948 64.23 64.23c7.637 7.66 16.188 14.013 25.478 18.952l-54.439 54.46zM310.958 22.78c-30.374-30.374-79.613-30.374-109.988 0l-97.52 97.52h9.247c20.082 0 38.97 7.834 53.178 22.02l76.784 76.785c5.57 5.592 14.622 5.57 20.17 0l77.069-77.068c14.207-14.187 33.094-22.02 53.176-22.02h15.123l-97.239-97.237zm6.028 96.346l-64.23 64.23-63.97-63.97c-6.593-6.592-13.86-12.206-21.736-16.818l56.853-56.877c17.69-17.645 46.476-17.668 64.121 0l54.44 54.461c-9.292 4.961-17.842 11.315-25.479 18.974h.001z"/> <path d="M489.149 200.97l-58.379-58.377h-37.706c-13.838 0-27.394 5.635-37.185 15.426l-77.068 77.069c-7.202 7.18-16.623 10.77-26.067 10.77-9.443 0-18.885-3.59-26.066-10.77l-76.785-76.785c-9.792-9.814-23.346-15.427-37.207-15.427h-31.81L22.78 200.97c-30.374 30.375-30.374 79.614 0 109.988l58.095 58.074 31.81.021c13.86 0 27.416-5.635 37.208-15.426l76.784-76.764c13.925-13.947 38.208-13.924 52.133-.02l77.068 77.066c9.791 9.792 23.346 15.405 37.185 15.405h37.706l58.379-58.356c30.374-30.374 30.374-79.613 0-109.988zm-362.19 129.724c-3.763 3.786-8.942 5.917-14.273 5.917H94.302l-48.59-48.564c-17.689-17.69-17.689-46.476 0-64.143L94.3 175.296h18.385c5.331 0 10.51 2.154 14.295 5.918l74.74 74.74-74.761 74.74zm339.257-42.647l-48.848 48.87h-24.305c-5.309 0-10.508-2.155-14.251-5.92l-75.023-75.043 75.023-75.023c3.743-3.764 8.942-5.918 14.252-5.918h24.304l48.847 48.891c8.573 8.551 13.273 19.93 13.273 32.05 0 12.141-4.7 23.52-13.273 32.093z"/> </g> </symbol>
	<symbol id="Boleto"  viewBox="0 5 64 32" xmlns="http://www.w3.org/2000/svg" ><path d="M7.5 28.5H7V3.5h0.5V28.5zM10.9 3.5H8.4v25.1h2.6V3.5zM17 3.5h-2.7V16H17V3.5zM19.4 3.5h-1.1V16h1.1V3.5zM21.2 3.5h-0.8V16h0.8V3.5zM23.6 3.5h-0.7V16h0.7V3.5zM12.9 3.5h-1.2V16h1.2V3.5zM24.4 3.5H24V16h0.4V3.5zM25.5 3.5h-0.7V16h0.7V3.5zM29.2 3.5h-1.7V16h1.7V3.5zM30.5 3.5h-0.7V16h0.7V3.5zM35.1 3.5h-3.2V16h3.2V3.5zM37.5 3.5h-1.2V16h1.2V3.5zM39.6 3.5h-1V16h1V3.5zM41.7 3.5h-0.4V16h0.4V3.5zM50.8 16H52V3.5h-1.3V16zM44.1 3.5h-0.9V16h0.9V3.5zM47.5 3.5h-1.7V16h1.7V3.5zM49.3 3.5h-1.1V16h1.1V3.5zM53.4 3.5h-0.5v25.1h0.5V3.5zM57 3.5h-2.5v25.1H57V3.5z"/><path d="M17.3 18c0.4 0.2 0.7 0.5 0.9 1 0.2 0.4 0.3 0.9 0.3 1.5 0 0.6-0.1 1.1-0.3 1.5 -0.2 0.4-0.5 0.7-0.8 0.9 0.4 0.1 0.8 0.5 1 0.9 0.2 0.5 0.4 1.1 0.4 1.8 0 0.6-0.1 1.1-0.3 1.6 -0.2 0.5-0.5 0.8-0.9 1.1 -0.4 0.2-0.8 0.4-1.4 0.4h-3.3V17.6H16C16.5 17.6 17 17.7 17.3 18zM16.5 21.7c0.1-0.2 0.2-0.5 0.2-0.8 0-0.3-0.1-0.6-0.2-0.8 -0.1-0.2-0.3-0.3-0.6-0.3h-1.3V22H16C16.2 22 16.4 21.9 16.5 21.7zM16.7 26c0.2-0.2 0.3-0.5 0.3-0.9 0-0.3-0.1-0.6-0.3-0.8C16.5 24.1 16.3 24 16 24h-1.3v2.3H16C16.3 26.3 16.5 26.2 16.7 26z"/><path d="M24.6 18.3c0.5 0.5 0.9 1.1 1.2 1.9 0.3 0.8 0.5 1.7 0.5 2.8 0 1-0.2 2-0.5 2.8 -0.3 0.8-0.7 1.5-1.2 2 -0.5 0.5-1.1 0.7-1.8 0.7 -0.7 0-1.2-0.2-1.8-0.7 -0.5-0.5-0.9-1.1-1.2-2 -0.3-0.8-0.5-1.8-0.5-2.8 0-1 0.2-1.9 0.5-2.8 0.3-0.8 0.7-1.5 1.2-1.9 0.5-0.5 1.1-0.7 1.8-0.7C23.5 17.6 24.1 17.9 24.6 18.3zM22 20.4c-0.3 0.3-0.5 0.6-0.6 1.1 -0.2 0.5-0.2 1-0.2 1.6 0 0.6 0.1 1.1 0.2 1.6 0.2 0.5 0.4 0.9 0.6 1.1 0.3 0.3 0.6 0.4 0.9 0.4 0.3 0 0.6-0.1 0.9-0.4 0.3-0.3 0.5-0.7 0.6-1.1 0.2-0.5 0.2-1 0.2-1.6 0-0.6-0.1-1.1-0.2-1.6 -0.2-0.5-0.4-0.9-0.6-1.1 -0.3-0.3-0.6-0.4-0.9-0.4C22.5 20 22.2 20.1 22 20.4z"/><path d="M27.3 17.6H29v8.5h2.8v2.4h-4.5V17.6z"/><path d="M32.6 17.6h5.2v2.3h-3.5v2h3.2v2.3l-3.2 0v2.1h3.6v2.3h-5.3V17.6z"/><path d="M38.4 17.6h5.7V20h-2v8.6h-1.7V20h-2V17.6z"/><path d="M49.4 18.3c0.5 0.5 0.9 1.1 1.2 1.9 0.3 0.8 0.5 1.7 0.5 2.8 0 1-0.2 2-0.5 2.8 -0.3 0.8-0.7 1.5-1.2 2 -0.5 0.5-1.1 0.7-1.8 0.7 -0.7 0-1.2-0.2-1.8-0.7 -0.5-0.5-0.9-1.1-1.2-2 -0.3-0.8-0.5-1.8-0.5-2.8 0-1 0.2-1.9 0.5-2.8 0.3-0.8 0.7-1.5 1.2-1.9 0.5-0.5 1.1-0.7 1.8-0.7C48.3 17.6 48.9 17.9 49.4 18.3zM46.8 20.4c-0.3 0.3-0.5 0.6-0.6 1.1 -0.2 0.5-0.2 1-0.2 1.6 0 0.6 0.1 1.1 0.2 1.6 0.2 0.5 0.4 0.9 0.6 1.1 0.3 0.3 0.6 0.4 0.9 0.4 0.3 0 0.6-0.1 0.9-0.4 0.3-0.3 0.5-0.7 0.6-1.1 0.2-0.5 0.2-1 0.2-1.6 0-0.6-0.1-1.1-0.2-1.6 -0.2-0.5-0.4-0.9-0.6-1.1C48.3 20.1 48 20 47.7 20 47.3 20 47 20.1 46.8 20.4z"/></symbol>
	<symbol id="DinnersClub" width="70px" height="70px"  viewBox="-110 -10 1000 880" color="0 0 780 500"  fill="none"  xmlns="http://www.w3.org/2000/svg"><path d="M239.7 79.9c-96.9 0-175.8 78.6-175.8 175.8 0 96.9 78.9 175.8 175.8 175.8 97.2 0 175.8-78.9 175.8-175.8 0-97.2-78.6-175.8-175.8-175.8zm-39.9 279.6c-41.7-15.9-71.4-56.4-71.4-103.8s29.7-87.9 71.4-104.1v207.9zm79.8.3V151.6c41.7 16.2 71.4 56.7 71.4 104.1s-29.7 87.9-71.4 104.1zM528 32H48C21.5 32 0 53.5 0 80v352c0 26.5 21.5 48 48 48h480c26.5 0 48-21.5 48-48V80c0-26.5-21.5-48-48-48zM329.7 448h-90.3c-106.2 0-193.8-85.5-193.8-190.2C45.6 143.2 133.2 64 239.4 64h90.3c105 0 200.7 79.2 200.7 193.8 0 104.7-95.7 190.2-200.7 190.2z" fill="#0081d1"></path></symbol>
	<symbol id="AmericanExpress" viewBox="-90 -10 812 712" width="65px" height="65px" xmlns="http://www.w3.org/2000/svg" fill="none"> <defs/> <g fill="#00BDAE" fill-rule="evenodd"><path style="fill:#306FC5;" d="M512,402.281c0,16.716-13.55,30.267-30.265,30.267H30.265C13.55,432.549,0,418.997,0,402.281V109.717 c0-16.715,13.55-30.266,30.265-30.266h451.47c16.716,0,30.265,13.551,30.265,30.266V402.281L512,402.281z"/><path style="opacity:0.15;fill:#202121;enable-background:new    ;" d="M21.517,402.281V109.717 c0-16.715,13.552-30.266,30.267-30.266h-21.52C13.55,79.451,0,93.001,0,109.717v292.565c0,16.716,13.55,30.267,30.265,30.267h21.52 C35.07,432.549,21.517,418.997,21.517,402.281z"/><g>	<polygon style="fill:#FFFFFF;" points="74.59,220.748 89.888,220.748 82.241,201.278 	"/>	<polygon style="fill:#FFFFFF;" points="155.946,286.107 155.946,295.148 181.675,295.148 181.675,304.885 155.946,304.885 		155.946,315.318 184.455,315.318 197.666,300.712 185.151,286.107 	"/>	<polygon style="fill:#FFFFFF;" points="356.898,201.278 348.553,220.748 364.548,220.748 	"/>	<polygon style="fill:#FFFFFF;" points="230.348,320.875 230.348,281.241 212.268,300.712 	"/>	<path style="fill:#FFFFFF;" d="M264.42,292.368c-0.696-4.172-3.48-6.261-7.654-6.261h-14.599v12.516h15.299		C261.637,298.624,264.42,296.539,264.42,292.368z"/>	<path style="fill:#FFFFFF;" d="M313.09,297.236c1.391-0.697,2.089-2.785,2.089-4.867c0.696-2.779-0.698-4.172-2.089-4.868		c-1.387-0.696-3.476-0.696-5.559-0.696h-13.91v11.127h13.909C309.613,297.932,311.702,297.932,313.09,297.236z"/>	<path style="fill:#FFFFFF;" d="M413.217,183.198v8.344l-4.169-8.344H376.37v8.344l-4.174-8.344h-44.502		c-7.648,0-13.909,1.392-19.469,4.173v-4.173h-31.289v0.696v3.477c-3.476-2.78-7.648-4.173-13.211-4.173h-111.95l-7.652,17.384		l-7.647-17.384h-25.031h-10.431v8.344l-3.477-8.344h-0.696H66.942l-13.909,32.68L37.042,251.34l-0.294,0.697h0.294h35.463h0.444		l0.252-0.697l4.174-10.428h9.039l4.172,11.125h40.326v-0.697v-7.647l3.479,8.343h20.163l3.475-8.343v7.647v0.697h15.993h79.965		h0.696v-18.08h1.394c1.389,0,1.389,0,1.389,2.087v15.297h50.065v-4.172c4.172,2.089,10.426,4.172,18.771,4.172h20.863l4.172-11.123		h9.732l4.172,11.123h40.328v-6.952v-3.476l6.261,10.428h1.387h0.698h30.595v-68.143h-31.291l0,0H413.217z M177.501,241.609h-6.955		h-4.171v-4.169v-34.076l-0.696,1.595v-0.019l-16.176,36.669h-0.512h-3.719h-6.017l-16.687-38.245v38.245h-23.64l-4.867-10.43		H70.417l-4.868,10.43H53.326l20.57-48.675h17.382l19.469,46.587v-46.587h4.171h14.251l0.328,0.697h0.024l8.773,19.094l6.3,14.306		l0.223-0.721l13.906-33.375H177.5v48.674H177.501L177.501,241.609z M225.481,203.364h-27.119v9.039h26.423v9.734h-26.423v9.738		h27.119v10.427h-38.939v-49.367h38.939V203.364L225.481,203.364z M275.076,221.294c0.018,0.016,0.041,0.027,0.063,0.042		c0.263,0.278,0.488,0.557,0.68,0.824c1.332,1.746,2.409,4.343,2.463,8.151c0.004,0.066,0.007,0.131,0.011,0.197		c0,0.038,0.007,0.071,0.007,0.11c0,0.022-0.002,0.039-0.002,0.06c0.016,0.383,0.026,0.774,0.026,1.197v9.735h-10.428v-5.565		c0-2.781,0-6.954-2.089-9.735c-0.657-0.657-1.322-1.09-2.046-1.398c-1.042-0.675-3.017-0.686-6.295-0.686h-12.52v17.384h-11.818		v-48.675h26.425c6.254,0,10.428,0,13.906,2.086c3.407,2.046,5.465,5.439,5.543,10.812c-0.161,7.4-4.911,11.46-8.326,12.829		C270.676,218.662,272.996,219.129,275.076,221.294z M298.491,241.609h-11.822v-48.675h11.822V241.609z M434.083,241.609h-15.3		l-22.25-36.855v30.595l-0.073-0.072v6.362h-11.747v-0.029h-11.822l-4.172-10.43H344.38l-4.172,11.123h-13.211		c-5.559,0-12.517-1.389-16.687-5.561c-4.172-4.172-6.256-9.735-6.256-18.773c0-6.953,1.389-13.911,6.256-19.472		c3.474-4.175,9.735-5.562,17.382-5.562h11.128v10.429h-11.128c-4.172,0-6.254,0.693-9.041,2.783		c-2.082,2.085-3.474,6.256-3.474,11.123c0,5.564,0.696,9.04,3.474,11.821c2.091,2.089,4.87,2.785,8.346,2.785h4.867l15.991-38.243		h6.957h10.428l19.472,46.587v-2.376v-15.705v-1.389v-27.116h17.382l20.161,34.07v-34.07h11.826v47.977h0.002L434.083,241.609		L434.083,241.609z"/>	<path style="fill:#FFFFFF;" d="M265.161,213.207c0.203-0.217,0.387-0.463,0.543-0.745c0.63-0.997,1.352-2.793,0.963-5.244		c-0.016-0.225-0.057-0.433-0.105-0.634c-0.013-0.056-0.011-0.105-0.026-0.161l-0.007,0.001c-0.346-1.191-1.229-1.923-2.11-2.367		c-1.394-0.693-3.48-0.693-5.565-0.693h-13.909v11.127h13.909c2.085,0,4.172,0,5.565-0.697c0.209-0.106,0.395-0.25,0.574-0.413		l0.002,0.009C264.996,213.389,265.067,213.315,265.161,213.207z"/>	<path style="fill:#FFFFFF;" d="M475.105,311.144c0-4.867-1.389-9.736-3.474-13.212v-31.289h-0.032v-2.089c0,0-29.145,0-33.483,0		c-4.336,0-9.598,4.171-9.598,4.171v-4.171h-31.984c-4.87,0-11.124,1.392-13.909,4.171v-4.171h-57.016v2.089v2.081		c-4.169-3.474-11.824-4.171-15.298-4.171h-37.549v2.089v2.081c-3.476-3.474-11.824-4.171-15.998-4.171H215.05l-9.737,10.431		l-9.04-10.431h-2.911h-4.737h-54.93v2.089v5.493v62.651h61.19l10.054-10.057l8.715,10.057h0.698h35.258h1.598h0.696h0.692v-6.953		v-9.039h3.479c4.863,0,11.124,0,15.991-2.089v17.382v1.394h31.291v-1.394V317.4h1.387c2.089,0,2.089,0,2.089,2.086v14.6v1.394		h94.563c6.263,0,12.517-1.394,15.993-4.175v2.781v1.394h29.902c6.254,0,12.517-0.695,16.689-3.478		c6.402-3.841,10.437-10.64,11.037-18.749c0.028-0.24,0.063-0.48,0.085-0.721l-0.041-0.039		C475.087,312.043,475.105,311.598,475.105,311.144z M256.076,306.973h-13.91v2.081v4.174v4.173v7.649h-22.855l-13.302-15.299		l-0.046,0.051l-0.65-0.748l-15.297,15.996h-44.501v-48.673h45.197l12.348,13.525l2.596,2.832l0.352-0.365l14.604-15.991h36.852		c7.152,0,15.161,1.765,18.196,9.042c0.365,1.441,0.577,3.043,0.577,4.863C276.237,304.189,266.502,306.973,256.076,306.973z		 M325.609,306.276c1.389,2.081,2.085,4.867,2.085,9.041v9.732h-11.819v-6.256c0-2.786,0-7.65-2.089-9.739		c-1.387-2.081-4.172-2.081-8.341-2.081H292.93v18.077h-11.82v-49.369h26.421c5.559,0,10.426,0,13.909,2.084		c3.474,2.088,6.254,5.565,6.254,11.128c0,7.647-4.865,11.819-8.343,13.212C322.829,303.49,324.914,304.885,325.609,306.276z		 M373.589,286.107h-27.122v9.04h26.424v9.737h-26.424v9.736h27.122v10.429H334.65V275.68h38.939V286.107z M402.791,325.05h-22.252		v-10.429h22.252c2.082,0,3.476,0,4.87-1.392c0.696-0.697,1.387-2.085,1.387-3.477c0-1.394-0.691-2.778-1.387-3.475		c-0.698-0.695-2.091-1.391-4.176-1.391c-11.126-0.696-24.337,0-24.337-15.296c0-6.954,4.172-14.604,16.689-14.604h22.945v11.819		h-21.554c-2.085,0-3.478,0-4.87,0.696c-1.387,0.697-1.387,2.089-1.387,3.478c0,2.087,1.387,2.783,2.778,3.473		c1.394,0.697,2.783,0.697,4.172,0.697h6.259c6.259,0,10.43,1.391,13.211,4.173c2.087,2.087,3.478,5.564,3.478,10.43		C420.869,320.179,414.611,325.05,402.791,325.05z M462.59,320.179c-2.778,2.785-7.648,4.871-14.604,4.871H425.74v-10.429h22.245		c2.087,0,3.481,0,4.87-1.392c0.693-0.697,1.391-2.085,1.391-3.477c0-1.394-0.698-2.778-1.391-3.475		c-0.696-0.695-2.085-1.391-4.172-1.391c-11.122-0.696-24.337,0-24.337-15.295c0-6.609,3.781-12.579,13.106-14.352		c1.115-0.154,2.293-0.253,3.583-0.253h22.948v11.819h-15.3h-5.561h-0.696c-2.087,0-3.476,0-4.865,0.696		c-0.7,0.697-1.396,2.089-1.396,3.478c0,2.087,0.696,2.783,2.785,3.473c1.389,0.697,2.78,0.697,4.172,0.697h0.691h5.565		c3.039,0,5.337,0.375,7.44,1.114c1.926,0.697,8.302,3.549,9.728,10.994c0.124,0.78,0.215,1.594,0.215,2.495		C466.761,313.925,465.37,317.401,462.59,320.179z"/></g></symbol>
</svg>
